<!DOCTYPE svg PUBLIC "-//W3C//DTD SVG 1.1//EN" "http://www.w3.org/Graphics/SVG/1.1/DTD/svg11.dtd">
<!-- Uploaded to: SVG Repo, www.svgrepo.com, Transformed by: SVG Repo Mixer Tools -->
<svg version="1.1" id="Layer_1" xmlns="http://www.w3.org/2000/svg" xmlns:xlink="http://www.w3.org/1999/xlink" viewBox="-15.36 -15.36 542.72 542.72" xml:space="preserve" width="256px" height="256px" fill="#000000">
<g id="SVGRepo_bgCarrier" stroke-width="0">
<rect x="-15.36" y="-15.36" width="542.72" height="542.72" rx="0" fill="#00bfff" strokewidth="0"/>
</g>
<g id="SVGRepo_tracerCarrier" stroke-linecap="round" stroke-linejoin="round"/>
<g id="SVGRepo_iconCarrier"> <path style="fill:#F7EDBC;" d="M505.105,196.794C478.386,83.958,377.003,0,256,0C114.615,0,0,114.616,0,256 c0,113.869,74.352,210.356,177.15,243.606L505.105,196.794z"/> <path style="fill:#FBE287;" d="M113.043,435.499l64.107,64.107C201.991,507.641,228.484,512,256,512c141.384,0,256-114.615,256-256 c0-20.381-2.394-40.201-6.895-59.206l-137.8-137.8L113.043,435.499z"/> <polygon style="fill:#2DB37F;" points="367.304,58.994 367.304,181.428 189.217,181.428 256,58.994 "/> <rect x="144.696" y="58.991" style="fill:#5AC779;" width="111.304" height="122.435"/> <path style="fill:#85DC79;" d="M345.043,114.646v66.783H211.478L256,81.254h55.652C311.652,99.698,326.6,114.646,345.043,114.646z"/> <path style="fill:#AFF078;" d="M256,81.254v100.174h-89.043v-66.783c18.443,0,33.391-14.948,33.391-33.391H256z"/> <polygon style="fill:#F15D4A;" points="255.814,136.902 167.142,404.033 389.751,359.511 389.751,136.902 "/> <path style="fill:#FF7452;" d="M144.51,136.902c-24.549,0-44.522,19.972-44.522,44.522v222.609h155.826v-267.13L144.51,136.902 L144.51,136.902z"/> <polygon style="fill:#C42725;" points="334.099,203.685 334.099,292.728 356.36,292.728 367.49,276.033 378.621,292.728 412.012,292.728 412.012,203.685 378.621,203.685 367.49,220.38 356.36,203.685 "/> <path style="fill:#E24642;" d="M144.51,359.511c-24.549,0-44.522,19.972-44.522,44.522s19.972,44.522,44.522,44.522h245.24v-22.261 l-22.261-22.261l22.261-22.261v-22.261H144.51z"/> <path style="fill:#C42725;" d="M389.751,404.033v22.261H144.51c-12.296,0-22.261-9.965-22.261-22.261l122.805-14.84L389.751,404.033 z"/> <path style="fill:#D33734;" d="M389.751,381.772v22.261H122.249c0-12.296,9.965-22.261,22.261-22.261H389.751z"/> <rect x="356.541" y="203.687" style="fill:#FF7452;" width="22.261" height="89.043"/> <g> <rect x="166.957" y="314.991" style="fill:#F15D4A;" width="22.261" height="22.261"/> <rect x="122.435" y="270.47" style="fill:#F15D4A;" width="22.261" height="22.261"/> <rect x="167.324" y="159.165" style="fill:#F15D4A;" width="22.261" height="22.261"/> </g> </g>
</svg>